# This file uses inches as units for non-parametric coordinates.

mtllib Door_1.mtl
g default
v -6.738419 0.000005 -48.677170
v -5.582214 -0.000003 48.760910
v -6.617889 30.480003 -38.517868
v -5.702759 30.480000 38.601624
v -6.617889 213.765228 -38.517853
v -5.702759 213.765228 38.601654
v -6.738419 223.925201 -48.677124
v -5.582214 223.925171 48.760925
v -1.658798 0.000005 -48.737442
v -0.502548 -0.000003 48.700638
v -1.538254 30.480003 -38.578140
v -0.623123 30.480000 38.541351
v -1.538254 213.765228 -38.578125
v -0.623123 213.765228 38.541367
v -1.658798 223.925201 -48.737411
v -0.502548 223.925171 48.700653
v -7.359329 0.000004 -53.750153
v -7.299026 0.000004 -48.670517
v 0.881027 0.000004 -48.767563
v 0.820724 0.000004 -53.847214
v -7.359329 229.005188 -53.750122
v -7.299026 223.925201 -48.670471
v 0.881012 223.925201 -48.767563
v 0.820724 229.005188 -53.847214
v -6.142792 -0.000004 48.767563
v -6.082520 -0.000004 53.847214
v 2.097534 -0.000004 53.750137
v 2.037247 -0.000004 48.670502
v -6.142792 223.268204 48.767578
v -6.082535 229.005127 53.847198
v 2.097534 229.005127 53.750153
v 2.037247 223.268204 48.670517
v -1.692825 107.381874 -41.965210
v -1.692825 108.901703 -40.218246
v 0.010025 111.019241 -42.486435
v 0.010025 112.085701 -41.260590
v -1.692825 131.769150 -41.965210
v -1.692825 130.249329 -40.218246
v 0.010025 128.131790 -42.486435
v 0.010025 127.065323 -41.260590
v -1.692825 130.249329 -47.206833
v -1.692825 131.769150 -45.459869
v 0.010025 127.065323 -46.164490
v 0.010025 128.131790 -44.938644
v -1.692825 107.381874 -45.459869
v -1.692825 108.901703 -47.206833
v 0.010025 111.019241 -44.938644
v 0.010025 112.085701 -46.164490
v 5.048492 117.984077 -44.853806
v 3.507919 117.984077 -44.853806
v 2.737625 117.984077 -43.519623
v 3.507904 117.984077 -42.185440
v 5.048492 117.984077 -42.185440
v 5.818771 117.984077 -43.519623
v 5.612381 119.025139 -45.830490
v 2.944016 119.025139 -45.830490
v 1.609848 119.025139 -43.519623
v 2.944016 119.025139 -41.208755
v 5.612381 119.025139 -41.208755
v 6.946548 119.025139 -43.519623
v 5.818771 120.447243 -46.187973
v 2.737625 120.447243 -46.187973
v 1.197052 120.447243 -43.519623
v 2.737625 120.447243 -40.851273
v 5.818771 120.447243 -40.851273
v 7.359344 120.447243 -43.519623
v 5.612381 121.869347 -45.830490
v 2.944016 121.869347 -45.830490
v 1.609848 121.869347 -43.519623
v 2.944016 121.869347 -41.208755
v 5.612381 121.869347 -41.208755
v 6.946548 121.869347 -43.519623
v 5.048492 122.910408 -44.853806
v 3.507919 122.910408 -44.853806
v 2.737625 122.910408 -43.519623
v 3.507904 122.910408 -42.185440
v 5.048492 122.910408 -42.185440
v 5.818771 122.910408 -43.519623
v 4.278198 117.603027 -43.519623
v 4.278198 123.291458 -43.519623
v 1.962631 120.553253 -45.172791
v 1.962631 119.325935 -43.945465
v 1.962631 120.553253 -42.718140
v 1.962631 121.780571 -43.945465
v -0.154190 120.553253 -45.172791
v -0.154190 119.325935 -43.945465
v -0.154190 120.553253 -42.718140
v -0.154190 121.780571 -43.945465
vt 0.393022 0.950513
vt 0.437974 0.995468
vt 0.006858 0.995468
vt 0.051810 0.950510
vt 0.438015 0.004687
vt 0.393056 0.139547
vt 0.006819 0.004687
vt 0.051777 0.139547
vt 0.051810 0.950510
vt 0.393022 0.950513
vt 0.437974 0.995468
vt 0.006858 0.995468
vt 0.438015 0.004687
vt 0.393056 0.139547
vt 0.051777 0.139547
vt 0.006819 0.004687
vt 0.361200 0.147208
vt 0.383307 0.147208
vt 0.383307 0.944823
vt 0.361200 0.944823
vt 0.383307 0.147208
vt 0.383307 0.944823
vt 0.361200 0.944823
vt 0.361200 0.147208
vt 0.206182 0.607990
vt 0.206182 0.943620
vt 0.184076 0.943619
vt 0.184076 0.607989
vt 0.206182 0.943620
vt 0.184076 0.943619
vt 0.184076 0.607989
vt 0.206182 0.607990
vt 0.483626 0.015726
vt 0.504404 0.039190
vt 0.504405 0.952335
vt 0.483626 0.952332
vt 0.450168 0.015728
vt 0.450168 0.952337
vt 0.537863 0.039188
vt 0.558637 0.015722
vt 0.558637 0.952331
vt 0.537864 0.952332
vt 0.483626 0.015726
vt 0.504404 0.039190
vt 0.504405 0.952335
vt 0.483626 0.952332
vt 0.450168 0.015728
vt 0.450168 0.952337
vt 0.537863 0.039188
vt 0.558637 0.015722
vt 0.558637 0.952331
vt 0.537864 0.952332
vt 0.116892 0.477685
vt 0.116892 0.945957
vt 0.081293 0.945955
vt 0.081293 0.477683
vt 0.140426 0.499706
vt 0.140426 0.923774
vt 0.057757 0.499724
vt 0.057755 0.923792
vt 0.176028 0.499749
vt 0.176028 0.923816
vt 0.073561 0.470498
vt 0.114326 0.450350
vt 0.297910 0.450350
vt 0.338672 0.470498
vt 0.359707 0.445037
vt 0.310862 0.436143
vt 0.310862 0.406236
vt 0.359707 0.397341
vt 0.338672 0.371879
vt 0.297910 0.392030
vt 0.114326 0.392030
vt 0.073561 0.371879
vt 0.052527 0.397341
vt 0.101372 0.406236
vt 0.101372 0.436143
vt 0.052527 0.445037
vt 0.249689 0.265881
vt 0.272020 0.260991
vt 0.285672 0.277962
vt 0.254480 0.283664
vt 0.120188 0.260985
vt 0.142516 0.265876
vt 0.137724 0.283661
vt 0.106533 0.277959
vt 0.173717 0.265977
vt 0.167656 0.283947
vt 0.196105 0.272089
vt 0.196103 0.286917
vt 0.218491 0.265977
vt 0.224549 0.283949
vt 0.292372 0.301352
vt 0.257293 0.301348
vt 0.134908 0.301346
vt 0.099830 0.301348
vt 0.166208 0.301341
vt 0.196103 0.301346
vt 0.225997 0.301344
vt 0.285668 0.324744
vt 0.254476 0.319032
vt 0.137724 0.319034
vt 0.106536 0.324739
vt 0.167656 0.318738
vt 0.196100 0.315769
vt 0.224546 0.318738
vt 0.272012 0.341709
vt 0.249684 0.336815
vt 0.142519 0.336815
vt 0.120190 0.341709
vt 0.173718 0.336709
vt 0.196102 0.330594
vt 0.218486 0.336707
vt 0.196105 0.236377
vt 0.213400 0.245717
vt 0.196107 0.255852
vt 0.178816 0.245715
vt 0.213395 0.356966
vt 0.196105 0.366308
vt 0.196105 0.346832
vt 0.178816 0.356968
vt 0.311925 0.369895
vt 0.290577 0.369898
vt 0.290577 0.343861
vt 0.311923 0.343860
vt 0.269229 0.369895
vt 0.269231 0.343860
vt 0.247880 0.369891
vt 0.247885 0.343855
vt 0.333274 0.369893
vt 0.333270 0.343858
vn -0.999930 0.000001 0.011865
vn -0.999930 0.000001 0.011865
vn -0.999930 0.000001 0.011865
vn -0.999930 0.000001 0.011865
vn -0.999930 -0.000000 0.011865
vn -0.999930 -0.000000 0.011865
vn -0.999930 -0.000000 0.011865
vn -0.999930 -0.000000 0.011865
vn -0.999930 -0.000000 0.011865
vn -0.999930 -0.000000 0.011865
vn -0.999930 -0.000000 0.011865
vn -0.999930 -0.000000 0.011865
vn -0.999930 -0.000000 0.011863
vn -0.999930 -0.000000 0.011863
vn -0.999930 -0.000000 0.011863
vn -0.999930 -0.000000 0.011863
vn 0.999930 -0.000002 -0.011866
vn 0.999930 -0.000002 -0.011866
vn 0.999930 -0.000002 -0.011866
vn 0.999930 -0.000002 -0.011866
vn 0.999930 0.000000 -0.011865
vn 0.999930 0.000000 -0.011865
vn 0.999930 0.000000 -0.011865
vn 0.999930 0.000000 -0.011865
vn 0.999930 0.000001 -0.011866
vn 0.999930 0.000001 -0.011866
vn 0.999930 0.000001 -0.011866
vn 0.999930 0.000001 -0.011866
vn 0.999930 0.000000 -0.011868
vn 0.999930 0.000000 -0.011868
vn 0.999930 0.000000 -0.011868
vn 0.999930 0.000000 -0.011868
vn 0.011864 -0.000000 0.999930
vn 0.011864 -0.000000 0.999930
vn 0.011864 -0.000000 0.999930
vn 0.011864 -0.000000 0.999930
vn -0.011866 0.000000 -0.999930
vn -0.011866 0.000000 -0.999930
vn -0.011866 0.000000 -0.999930
vn -0.011866 0.000000 -0.999930
vn 0.000000 1.000000 0.000000
vn 0.000000 1.000000 0.000000
vn 0.000000 1.000000 0.000000
vn 0.000000 1.000000 0.000000
vn 0.000000 -1.000000 0.000000
vn 0.000000 -1.000000 0.000000
vn 0.000000 -1.000000 0.000000
vn 0.000000 -1.000000 0.000000
vn -0.999930 -0.000000 0.011871
vn -0.999930 -0.000000 0.011871
vn -0.999930 -0.000000 0.011871
vn -0.999930 -0.000000 0.011871
vn 0.011866 -0.000000 0.999930
vn 0.011866 -0.000000 0.999930
vn 0.011866 -0.000000 0.999930
vn 0.011866 -0.000000 0.999930
vn 0.999930 0.000000 -0.011869
vn 0.999930 0.000000 -0.011869
vn 0.999930 0.000000 -0.011869
vn 0.999930 0.000000 -0.011869
vn -0.011866 0.000000 -0.999930
vn -0.011866 0.000000 -0.999930
vn -0.011866 0.000000 -0.999930
vn -0.011866 0.000000 -0.999930
vn -0.999930 -0.000000 0.011863
vn -0.999930 -0.000000 0.011863
vn -0.999930 -0.000000 0.011863
vn -0.999930 -0.000000 0.011863
vn 0.011865 0.000000 0.999930
vn 0.011865 0.000000 0.999930
vn 0.011865 0.000000 0.999930
vn 0.011865 0.000000 0.999930
vn 0.999930 0.000000 -0.011868
vn 0.999930 0.000000 -0.011868
vn 0.999930 0.000000 -0.011868
vn 0.999930 0.000000 -0.011868
vn -0.011865 0.000000 -0.999930
vn -0.011865 0.000000 -0.999930
vn -0.011865 0.000000 -0.999930
vn -0.011865 0.000000 -0.999930
vn 0.000000 1.000000 0.000001
vn 0.000000 1.000000 0.000001
vn 0.000000 1.000000 0.000001
vn 0.000000 1.000000 0.000001
vn 0.999930 -0.000000 -0.011866
vn 0.999930 -0.000000 -0.011866
vn 0.999930 -0.000000 -0.011866
vn 0.999930 -0.000000 -0.011866
vn -0.999930 -0.000004 0.011866
vn -0.999930 -0.000004 0.011866
vn -0.999930 -0.000004 0.011866
vn -0.999930 -0.000004 0.011866
vn -0.000080 -0.999977 -0.006742
vn -0.000080 -0.999977 -0.006742
vn -0.000080 -0.999977 -0.006742
vn -0.000080 -0.999977 -0.006742
vn 0.710335 -0.155141 0.686554
vn 0.563109 -0.030815 0.825808
vn 0.563109 0.030815 0.825808
vn 0.710334 0.155141 0.686554
vn 0.906702 0.410754 0.095773
vn 0.904750 0.404398 0.133753
vn 0.904750 0.404397 -0.133752
vn 0.906702 0.410754 -0.095773
vn 0.710335 0.155141 -0.686554
vn 0.563109 0.030815 -0.825808
vn 0.563109 -0.030815 -0.825808
vn 0.710335 -0.155141 -0.686553
vn 0.906703 -0.410753 -0.095771
vn 0.904751 -0.404397 -0.133750
vn 0.904751 -0.404397 0.133751
vn 0.906703 -0.410754 0.095771
vn 1.000000 0.000000 0.000000
vn 1.000000 0.000000 0.000000
vn 1.000000 0.000000 0.000000
vn 1.000000 0.000000 0.000000
vn 1.000000 0.000000 0.000000
vn 1.000000 0.000000 0.000000
vn 1.000000 0.000000 0.000000
vn 1.000000 0.000000 0.000000
vn 1.000000 0.000000 0.000000
vn 1.000000 0.000000 0.000000
vn 1.000000 0.000000 0.000000
vn 1.000000 0.000000 0.000000
vn 0.307048 -0.789234 -0.531819
vn -0.307045 -0.789235 -0.531820
vn -0.446098 -0.451653 -0.772662
vn 0.446098 -0.451653 -0.772662
vn -0.614092 -0.789234 -0.000001
vn -0.892193 -0.451654 -0.000000
vn -0.307046 -0.789235 0.531818
vn -0.446097 -0.451653 0.772662
vn 0.307046 -0.789235 0.531818
vn 0.446097 -0.451653 0.772662
vn 0.614093 -0.789234 -0.000000
vn 0.892194 -0.451653 -0.000000
vn -0.500000 0.000000 -0.866026
vn 0.500000 0.000000 -0.866026
vn -1.000000 -0.000000 0.000000
vn -0.499999 0.000000 0.866026
vn 0.499999 0.000000 0.866026
vn 1.000000 0.000000 -0.000000
vn -0.446098 0.451653 -0.772662
vn 0.446097 0.451652 -0.772663
vn -0.892193 0.451654 -0.000000
vn -0.446097 0.451653 0.772663
vn 0.446097 0.451653 0.772663
vn 0.892194 0.451653 0.000000
vn -0.307045 0.789234 -0.531820
vn 0.307048 0.789234 -0.531819
vn -0.614092 0.789234 -0.000002
vn -0.307046 0.789234 0.531819
vn 0.307046 0.789234 0.531820
vn 0.614093 0.789234 0.000001
vn -0.000000 -1.000000 0.000000
vn -0.000000 1.000000 0.000001
vn 0.000000 0.000000 -1.000000
vn 0.000000 -1.000000 0.000000
vn 0.000000 -1.000000 0.000000
vn 0.000000 0.000000 -1.000000
vn 0.000000 0.000000 1.000000
vn 0.000000 0.000000 1.000000
vn 0.000000 1.000000 0.000000
vn 0.000000 1.000000 0.000000
s off
g Door_1_Door Door_1
usemtl initialShadingGroup
f 6/1/1 8/2/2 7/3/3 5/4/4
f 2/5/5 8/2/6 6/1/7 4/6/8
f 1/7/9 2/5/10 4/6/11 3/8/12
f 1/7/13 3/8/14 5/4/15 7/3/16
f 14/9/17 13/10/18 15/11/19 16/12/20
f 9/13/21 15/11/22 13/10/23 11/14/24
f 9/13/25 11/14/26 12/15/27 10/16/28
f 14/9/29 16/12/30 10/16/31 12/15/32
f 13/17/33 5/18/34 3/19/35 11/20/36
f 14/21/37 12/22/38 4/23/39 6/24/40
f 12/25/41 11/26/42 3/27/43 4/28/44
f 14/29/45 6/30/46 5/31/47 13/32/48
f 22/33/49 21/34/50 17/35/51 18/36/52
f 23/37/53 22/33/54 18/36/55 19/38/56
f 24/39/57 23/40/58 19/41/59 20/42/60
f 21/34/61 24/39/62 20/42/63 17/35/64
f 30/43/65 29/44/66 25/45/67 26/46/68
f 31/47/69 30/43/70 26/46/71 27/48/72
f 32/49/73 31/50/74 27/51/75 28/52/76
f 29/44/77 32/49/78 28/52/79 25/45/80
f 31/53/81 24/54/82 21/55/83 30/56/84
f 24/54/85 31/53/86 32/57/87 23/58/88
f 29/59/89 30/56/90 21/55/91 22/60/92
f 29/61/93 22/62/94 23/58/95 32/57/96
s 1
f 34/63/97 36/64/98 40/65/99 38/66/100
f 37/67/101 39/68/102 44/69/103 42/70/104
f 41/71/105 43/72/106 48/73/107 46/74/108
f 45/75/109 47/76/110 35/77/111 33/78/112
s off
f 40/65/113 43/72/114 44/69/115 39/68/116
s 1
f 34/63/97 33/78/112 35/77/111 36/64/98
f 37/67/101 38/66/100 40/65/99 39/68/102
f 41/71/105 42/70/104 44/69/103 43/72/106
f 45/75/109 46/74/108 48/73/107 47/76/110
s off
f 36/64/117 35/77/118 47/76/119 48/73/120
f 36/64/121 48/73/122 43/72/123 40/65/124
s 2
f 49/79/125 50/80/126 56/81/127 55/82/128
f 50/83/126 51/84/129 57/85/130 56/86/127
f 51/84/129 52/87/131 58/88/132 57/85/130
f 52/87/131 53/89/133 59/90/134 58/88/132
f 53/89/133 54/91/135 60/92/136 59/90/134
f 54/91/135 49/79/125 55/82/128 60/92/136
f 55/82/128 56/81/127 62/93/137 61/94/138
f 56/86/127 57/85/130 63/95/139 62/96/137
f 57/85/130 58/88/132 64/97/140 63/95/139
f 58/88/132 59/90/134 65/98/141 64/97/140
f 59/90/134 60/92/136 66/99/142 65/98/141
f 60/92/136 55/82/128 61/94/138 66/99/142
f 61/94/138 62/93/137 68/100/143 67/101/144
f 62/96/137 63/95/139 69/102/145 68/103/143
f 63/95/139 64/97/140 70/104/146 69/102/145
f 64/97/140 65/98/141 71/105/147 70/104/146
f 65/98/141 66/99/142 72/106/148 71/105/147
f 66/99/142 61/94/138 67/101/144 72/106/148
f 67/101/144 68/100/143 74/107/149 73/108/150
f 68/103/143 69/102/145 75/109/151 74/110/149
f 69/102/145 70/104/146 76/111/152 75/109/151
f 70/104/146 71/105/147 77/112/153 76/111/152
f 71/105/147 72/106/148 78/113/154 77/112/153
f 72/106/148 67/101/144 73/108/150 78/113/154
f 50/114/126 49/115/125 79/116/155
f 51/117/129 50/114/126 79/116/155
f 52/87/131 51/117/129 79/116/155
f 53/89/133 52/87/131 79/116/155
f 54/91/135 53/89/133 79/116/155
f 49/115/125 54/91/135 79/116/155
f 73/118/150 74/119/149 80/120/156
f 74/119/149 75/121/151 80/120/156
f 75/121/151 76/111/152 80/120/156
f 76/111/152 77/112/153 80/120/156
f 77/112/153 78/113/154 80/120/156
f 78/113/154 73/118/150 80/120/156
s 3
f 81/122/157 82/123/158 86/124/159 85/125/160
f 82/123/158 83/126/161 87/127/162 86/124/159
f 83/126/161 84/128/163 88/129/164 87/127/162
f 84/130/163 81/122/157 85/125/160 88/131/164
g default
v -3.949524 30.480003 -38.551773
v -3.034393 30.480000 38.567719
v -3.949524 213.765228 -38.551773
v -3.034393 213.765228 38.567749
v -4.584442 30.480003 -38.544235
v -3.669373 30.480000 38.575256
v -4.584473 213.765228 -38.544220
v -3.669373 213.765228 38.575272
vt 0.577619 0.983618
vt 0.577621 0.012559
vt 0.986231 0.012559
vt 0.986234 0.983618
vt 0.986234 0.983618
vt 0.577619 0.983618
vt 0.577621 0.012559
vt 0.986231 0.012559
vn 0.999930 0.000000 -0.011866
vn 0.999930 0.000000 -0.011866
vn 0.999930 0.000000 -0.011866
vn 0.999930 0.000000 -0.011866
vn -0.999930 -0.000000 0.011865
vn -0.999930 -0.000000 0.011865
vn -0.999930 -0.000000 0.011865
vn -0.999930 -0.000000 0.011865
s off
g Door_1 Door_1_Glass
usemtl initialShadingGroup
f 89/132/165 91/133/166 92/134/167 90/135/168
f 96/136/169 95/137/170 93/138/171 94/139/172
